name C:\Users\antoi\Documents\MyRepositories\upper-imu-dc\Results\main_tracking\Case_69\FLX01_linearAccelerations_bodyFrame.mot
datacolumns 4
datarows 141
range 0.51000000 1.91000000
endheader 
time	radius_imu_x	radius_imu_y	radius_imu_z	
          0.51000000	         -1.00956716	          9.61805004	          1.72940872	
          0.52000000	         -0.81858259	          9.62031534	          1.71660976	
          0.53000000	         -0.74308068	          9.62026711	          1.78795374	
          0.54000000	         -0.70866685	          9.62867094	          1.89387203	
          0.55000000	         -0.69011296	          9.63899977	          2.01857216	
          0.56000000	         -0.67943260	          9.65108051	          2.15519658	
          0.57000000	         -0.67496359	          9.66397658	          2.30039482	
          0.58000000	         -0.67704984	          9.67736300	          2.45221346	
          0.59000000	         -0.68641095	          9.69101544	          2.60935661	
          0.60000000	         -0.70337446	          9.70500183	          2.77078672	
          0.61000000	         -0.72748285	          9.71941769	          2.93544768	
          0.62000000	         -0.75726913	          9.73444250	          3.10216977	
          0.63000000	         -0.79005305	          9.75064548	          3.26981611	
          0.64000000	         -0.82218827	          9.76818818	          3.43737432	
          0.65000000	         -0.84973340	          9.78712908	          3.60388463	
          0.66000000	         -0.86899475	          9.80778042	          3.76797106	
          0.67000000	         -0.87652840	          9.82998145	          3.92831196	
          0.68000000	         -0.86916559	          9.85342429	          4.08346282	
          0.69000000	         -0.84392463	          9.87784013	          4.23194695	
          0.70000000	         -0.79883318	          9.90297225	          4.37112100	
          0.71000000	         -0.73161939	          9.92831042	          4.49992323	
          0.72000000	         -0.64086843	          9.95348426	          4.61646120	
          0.73000000	         -0.52641711	          9.97808374	          4.71922442	
          0.74000000	         -0.38930585	         10.00170633	          4.80694134	
          0.75000000	         -0.23221650	         10.02391340	          4.87859910	
          0.76000000	         -0.06049558	         10.04412050	          4.93301955	
          0.77000000	          0.11698991	         10.06242615	          4.96843186	
          0.78000000	          0.28607228	         10.07670232	          4.98148838	
          0.79000000	          0.42237597	         10.09071975	          4.96599105	
          0.80000000	          0.62598134	         10.09952600	          5.00167059	
          0.81000000	          0.85814026	         10.07984362	          5.07739991	
          0.82000000	          0.84924683	         10.11720675	          4.95759837	
          0.83000000	          0.74958121	         10.11651475	          4.92185509	
          0.84000000	          0.68117550	         10.13161985	          4.92067331	
          0.85000000	          0.56209362	         10.13684735	          4.99708092	
          0.86000000	          0.44865599	         10.14626606	          5.08372099	
          0.87000000	          0.32390580	         10.15249062	          5.17674659	
          0.88000000	          0.20565534	         10.15747351	          5.27149599	
          0.89000000	          0.09660905	         10.15818621	          5.37023145	
          0.90000000	         -0.00347947	         10.15626109	          5.46676948	
          0.91000000	         -0.08532685	         10.15004167	          5.56071390	
          0.92000000	         -0.14754621	         10.13814300	          5.65202591	
          0.93000000	         -0.18582480	         10.12001763	          5.73919793	
          0.94000000	         -0.19834728	         10.09484806	          5.82291427	
          0.95000000	         -0.18505736	         10.06238112	          5.90332413	
          0.96000000	         -0.14643089	         10.02229439	          5.98119496	
          0.97000000	         -0.08469141	          9.97470488	          6.05575857	
          0.98000000	         -0.00270972	          9.91977912	          6.12722247	
          0.99000000	          0.09525127	          9.85790023	          6.19510650	
          1.00000000	          0.20463188	          9.78950772	          6.25912171	
          1.01000000	          0.32039027	          9.71499379	          6.31893133	
          1.02000000	          0.43743037	          9.63469950	          6.37435240	
          1.03000000	          0.55086766	          9.54880047	          6.42542601	
          1.04000000	          0.65627222	          9.45738058	          6.47252442	
          1.05000000	          0.74981501	          9.36047627	          6.51636059	
          1.06000000	          0.82836786	          9.25813621	          6.55789614	
          1.07000000	          0.88961797	          9.15045629	          6.59818883	
          1.08000000	          0.93220647	          9.03759203	          6.63822599	
          1.09000000	          0.95566921	          8.91974293	          6.67876678	
          1.10000000	          0.96039327	          8.79713301	          6.72029587	
          1.11000000	          0.94733341	          8.66992737	          6.76306651	
          1.12000000	          0.91780466	          8.53819325	          6.80718769	
          1.13000000	          0.87332496	          8.40186272	          6.85272423	
          1.14000000	          0.81560120	          8.26074030	          6.89977919	
          1.15000000	          0.74662812	          8.11455494	          6.94855623	
          1.16000000	          0.66835008	          7.96302057	          6.99917644	
          1.17000000	          0.58340959	          7.80589325	          7.05195254	
          1.18000000	          0.49641873	          7.64312852	          7.10751199	
          1.19000000	          0.40493706	          7.47496113	          7.16408104	
          1.20000000	          0.31618416	          7.30169879	          7.22301985	
          1.21000000	          0.23105509	          7.12413817	          7.28346987	
          1.22000000	          0.14972832	          6.94318427	          7.34441687	
          1.23000000	          0.07300033	          6.75978010	          7.40524221	
          1.24000000	          0.00028418	          6.57483095	          7.46516523	
          1.25000000	         -0.06955783	          6.38906646	          7.52339245	
          1.26000000	         -0.13795518	          6.20301780	          7.57915600	
          1.27000000	         -0.20626541	          6.01703949	          7.63176869	
          1.28000000	         -0.27537962	          5.83138090	          7.68072204	
          1.29000000	         -0.34564308	          5.64626533	          7.72568568	
          1.30000000	         -0.41685693	          5.46194993	          7.76655294	
          1.31000000	         -0.48852234	          5.27873804	          7.80342870	
          1.32000000	         -0.56005518	          5.09695820	          7.83662462	
          1.33000000	         -0.63096260	          4.91693742	          7.86672957	
          1.34000000	         -0.70082439	          4.73902186	          7.89462638	
          1.35000000	         -0.76939066	          4.56350964	          7.92153703	
          1.36000000	         -0.83658424	          4.39069429	          7.94882169	
          1.37000000	         -0.90214289	          4.22082870	          7.97806537	
          1.38000000	         -0.96569164	          4.05410188	          8.01085144	
          1.39000000	         -1.02680983	          3.89059554	          8.04840198	
          1.40000000	         -1.08478601	          3.73031290	          8.09177382	
          1.41000000	         -1.13864658	          3.57320234	          8.14149528	
          1.42000000	         -1.18758723	          3.41915122	          8.19764881	
          1.43000000	         -1.23124804	          3.26798373	          8.25978244	
          1.44000000	         -1.26993106	          3.11946552	          8.32698515	
          1.45000000	         -1.30461927	          2.97332389	          8.39806200	
          1.46000000	         -1.33679688	          2.82927927	          8.47176291	
          1.47000000	         -1.36822138	          2.68708222	          8.54700305	
          1.48000000	         -1.40064855	          2.54654640	          8.62299119	
          1.49000000	         -1.43563728	          2.40758623	          8.69924649	
          1.50000000	         -1.47439312	          2.27025328	          8.77551820	
          1.51000000	         -1.51764632	          2.13472912	          8.85165582	
          1.52000000	         -1.56555367	          2.00129010	          8.92746884	
          1.53000000	         -1.61765391	          1.87026392	          9.00261282	
          1.54000000	         -1.67291099	          1.74199369	          9.07653310	
          1.55000000	         -1.72993534	          1.61681837	          9.14846041	
          1.56000000	         -1.78722090	          1.49505439	          9.21747463	
          1.57000000	         -1.84351405	          1.37699473	          9.28273228	
          1.58000000	         -1.89795106	          1.26287426	          9.34356118	
          1.59000000	         -1.95024299	          1.15282553	          9.39955730	
          1.60000000	         -2.00059743	          1.04683012	          9.45066050	
          1.61000000	         -2.04976107	          0.94468058	          9.49702317	
          1.62000000	         -2.09876361	          0.84597606	          9.53887945	
          1.63000000	         -2.14921623	          0.75014078	          9.57635424	
          1.64000000	         -2.20288807	          0.65646877	          9.60939755	
          1.65000000	         -2.26169449	          0.56416435	          9.63770168	
          1.66000000	         -2.32757549	          0.47237523	          9.66073358	
          1.67000000	         -2.40225066	          0.38021383	          9.67785013	
          1.68000000	         -2.48706764	          0.28680149	          9.68841458	
          1.69000000	         -2.58281618	          0.19133145	          9.69189009	
          1.70000000	         -2.68947132	          0.09314290	          9.68794178	
          1.71000000	         -2.80614677	         -0.00822694	          9.67646591	
          1.72000000	         -2.93125778	         -0.11304378	          9.65755587	
          1.73000000	         -3.06264781	         -0.22135524	          9.63144277	
          1.74000000	         -3.19731634	         -0.33308798	          9.59839271	
          1.75000000	         -3.33346724	         -0.44795089	          9.55826633	
          1.76000000	         -3.46575800	         -0.56555829	          9.51158567	
          1.77000000	         -3.59368373	         -0.68533339	          9.45759979	
          1.78000000	         -3.71312274	         -0.80670987	          9.39644327	
          1.79000000	         -3.82232863	         -0.92895093	          9.32801156	
          1.80000000	         -3.91939332	         -1.05141143	          9.25245765	
          1.81000000	         -4.00329971	         -1.17349293	          9.16999558	
          1.82000000	         -4.07395097	         -1.29490347	          9.08050430	
          1.83000000	         -4.13254123	         -1.41558435	          8.98294409	
          1.84000000	         -4.18098498	         -1.53475605	          8.87704638	
          1.85000000	         -4.21238406	         -1.64201089	          8.77742710	
          1.86000000	         -4.20716007	         -1.75086035	          8.69788635	
          1.87000000	         -4.18337895	         -1.88557543	          8.61230053	
          1.88000000	         -4.16118852	         -2.00690255	          8.51677646	
          1.89000000	         -4.14032900	         -2.11166697	          8.41373964	
          1.90000000	         -4.10302941	         -2.22350836	          8.31439822	
          1.91000000	         -4.05347991	         -2.33587026	          8.22085890	
